<svg xmlns="http://www.w3.org/2000/svg" xmlns:xlink="http://www.w3.org/1999/xlink" width="35" height="35" viewBox="0 0 35 35"><defs><clipPath id="a"><rect width="35" height="35" fill="none"/></clipPath></defs><g clip-path="url(#a)"><rect width="35" height="35" fill="none"/><path d="M928.365-1397.082h-1.293l-.45-.446a10.538,10.538,0,0,0,2.554-6.884A10.588,10.588,0,0,0,918.588-1415,10.588,10.588,0,0,0,908-1404.412a10.588,10.588,0,0,0,10.588,10.588,10.539,10.539,0,0,0,6.882-2.551l.45.446v1.29l8.141,8.13,2.429-2.429-8.125-8.144Zm-9.777,0a7.329,7.329,0,0,1-7.33-7.33,7.33,7.33,0,0,1,7.33-7.33,7.331,7.331,0,0,1,7.33,7.33,7.33,7.33,0,0,1-7.33,7.33Z" transform="translate(-905 1418)" fill="#fff" fill-rule="evenodd"/></g></svg>